<?xml version="1.0" standalone="no"?>
<!DOCTYPE svg PUBLIC "-//W3C//DTD SVG 20010904//EN"
 "http://www.w3.org/TR/2001/REC-SVG-20010904/DTD/svg10.dtd">
<svg version="1.0" xmlns="http://www.w3.org/2000/svg"
 width="500.000000pt" height="500.000000pt" viewBox="0 0 500.000000 500.000000"
 preserveAspectRatio="xMidYMid meet">
<metadata>
Created by potrace 1.14, written by Peter Selinger 2001-2017
</metadata>
<g transform="translate(0.000000,500.000000) scale(0.100000,-0.100000)"
fill="#000000" stroke="none">
<path d="M2369 4246 c-2 -2 -35 -6 -73 -10 -37 -3 -111 -16 -164 -27 -434 -94
-819 -352 -1071 -719 -482 -701 -393 -1630 212 -2232 87 -87 239 -205 338
-263 170 -100 392 -181 588 -217 162 -29 438 -29 602 0 540 97 1007 443 1257
935 43 84 106 238 117 287 2 8 13 51 23 95 35 139 45 226 46 380 1 235 -20
377 -89 582 -210 626 -759 1081 -1425 1178 -50 7 -355 17 -361 11z"/>
</g>
</svg>
